# xmcd
#
# Track frame offsets: 
#        150
#        14470
#        31704
#        48579
#        64654
#        80820
#        98819
#        116959
#
# Disc length: 1844 seconds
#
# Revision: 0
# Processed by: cddbd v1.5.2PL0 Copyright (c) Steve Scherf et al.
# Submitted via: ExactAudioCopy v0.95b4
#
DISCID=66073208
DTITLE=The Real Nasty - Downtown
DYEAR=2010
DGENRE=Country
TTITLE0=The Original
TTITLE1=Time To Lounge
TTITLE2=Life Of A Dog
TTITLE3=KC's Blues
TTITLE4=Harmonsequense
TTITLE5=New Generation
TTITLE6=One Last Time
TTITLE7=I Dont Love You Anymore
EXTD=
EXTT0=
EXTT1=
EXTT2=
EXTT3=
EXTT4=
EXTT5=
EXTT6=
EXTT7=
PLAYORDER=
